<?xml version="1.0" encoding="UTF-8"?>
<svg width="254px" height="174px" viewBox="0 0 254 174" version="1.1" xmlns="http://www.w3.org/2000/svg" xmlns:xlink="http://www.w3.org/1999/xlink">
    <!-- Generator: Sketch 58 (84663) - https://sketch.com -->
    <title>Logo1</title>
    <desc>Created with Sketch.</desc>
    <defs>
        <path d="M94.1599507,4.12114787e-13 L174.730605,56.4161796 L177.565493,66.6028529 L181.419014,61.0994541 L211.579869,82.2183122 L208.958909,194.316082 L262.489902,117.865901 L294.595309,140.346349 L200.528773,274.687284 L168.423367,252.206836 L170.267299,141.218777 L117.513334,216.559247 L75.3348953,187.025587 L76.6178442,92.3715609 L31.7229221,156.488154 L1.84741111e-13,134.474346 L94.1599507,4.12114787e-13 Z M105.446812,53.071805 L86.5187894,80.1038225 L123.853749,106.246043 C132.598075,105.871819 138.598597,103.359169 141.855315,98.7080942 C145.112033,94.0570189 145.420852,87.558996 142.781772,79.2140253 L142.781772,79.2140253 L105.446812,53.071805 Z" id="path-1"></path>
    </defs>
    <g id="Symbols" stroke="none" stroke-width="1" fill="none" fill-rule="evenodd">
        <g id="Logo1">
            <rect fill="#000000" x="0" y="0" width="254" height="174"></rect>
            <g id="Group" transform="translate(127.691687, 87.235930) rotate(-35.000000) translate(-127.691687, -87.235930) translate(-19.808313, -50.264070)">
                <mask id="mask-2" fill="white">
                    <use xlink:href="#path-1"></use>
                </mask>
                <g id="Mask"></g>
                <g mask="url(#mask-2)" id="Rectangle">
                    <g transform="translate(0.000000, -56.000000)">
                        <rect stroke="#000000" stroke-width="1" fill="#FCFCFC" x="-5.91171556e-12" y="56" width="300" height="276"></rect>
                        <rect stroke="none" fill="#3EA0EB" transform="translate(185.833653, 119.606118) rotate(35.000000) translate(-185.833653, -119.606118) " x="-9.66634743" y="110.606118" width="391" height="18"></rect>
                    </g>
                </g>
            </g>
            <path d="M108.873403,108.70195 C108.873403,108.70195 108.873403,112.649607 108.873403,120.544922 L103.873403,113.444133 C104.484194,113.086309 105.317528,112.406681 106.373403,111.40525 C107.957216,109.903103 108.873403,108.70195 108.873403,108.70195 Z" id="Path-3" fill="#E9009E" transform="translate(106.373403, 114.623436) rotate(35.000000) translate(-106.373403, -114.623436) "></path>
        </g>
    </g>
</svg>